<svg xmlns="http://www.w3.org/2000/svg" viewBox="0 0 181.59 34.66"><defs><style>.cls-1{fill:#028e4b;}</style></defs><title>Asset 1</title><g id="Layer_2" data-name="Layer 2"><g id="Capa_1" data-name="Capa 1"><path class="cls-1" d="M42,15.07H45.6L53,34.28H49.4L47.6,29.2H39.93l-1.8,5.08H34.65ZM40.84,26.64h5.87l-2.88-8.26h-.08Z"/><path class="cls-1" d="M54.48,15.07h3.07V34.28H54.48Z"/><path class="cls-1" d="M61,15.07H64V34.28H61Z"/><path class="cls-1" d="M67.45,15.07h3.07V18H67.45Zm0,5.3h3.07V34.28H67.45Z"/><path class="cls-1" d="M76.25,28.12a5.4,5.4,0,0,0,.23,1.56A3.94,3.94,0,0,0,77.16,31a3.33,3.33,0,0,0,1.16.9,3.88,3.88,0,0,0,1.67.34,3.74,3.74,0,0,0,2.17-.58,3.5,3.5,0,0,0,1.22-1.74h2.91a5.69,5.69,0,0,1-.84,2A5.77,5.77,0,0,1,84,33.43a6.16,6.16,0,0,1-1.87.92,7.85,7.85,0,0,1-2.17.31,7.4,7.4,0,0,1-2.91-.54A5.94,5.94,0,0,1,75,32.61a6.13,6.13,0,0,1-1.32-2.31,9.33,9.33,0,0,1-.45-3,8.41,8.41,0,0,1,.47-2.81A7.32,7.32,0,0,1,75,22.19,6.26,6.26,0,0,1,79.91,20a6.23,6.23,0,0,1,3,.69A6.37,6.37,0,0,1,85,22.5a7.17,7.17,0,0,1,1.25,2.59,7.89,7.89,0,0,1,.2,3Zm7.16-2a5.16,5.16,0,0,0-.31-1.4,3.79,3.79,0,0,0-.7-1.17,3.65,3.65,0,0,0-1.08-.81,3.24,3.24,0,0,0-1.41-.31,3.67,3.67,0,0,0-1.47.29,3.46,3.46,0,0,0-1.13.78,3.91,3.91,0,0,0-.75,1.17,4.08,4.08,0,0,0-.31,1.45Z"/><path class="cls-1" d="M101.92,34.28H99V32.4H99a3.64,3.64,0,0,1-1.8,1.73,6.14,6.14,0,0,1-2.51.53,6.69,6.69,0,0,1-2.86-.58,5.6,5.6,0,0,1-2-1.58,6.47,6.47,0,0,1-1.21-2.35,10.15,10.15,0,0,1-.41-2.92A9.32,9.32,0,0,1,88.65,24,6.52,6.52,0,0,1,90,21.72,5.21,5.21,0,0,1,92,20.41,6.15,6.15,0,0,1,94.17,20a7.53,7.53,0,0,1,1.32.12,6.88,6.88,0,0,1,1.29.39,5.1,5.1,0,0,1,1.14.69,4.1,4.1,0,0,1,.88,1h0v-7.1h3.07ZM91.21,27.47a6.83,6.83,0,0,0,.23,1.75,4.61,4.61,0,0,0,.7,1.54,3.54,3.54,0,0,0,1.2,1.07,3.45,3.45,0,0,0,1.72.41,3.5,3.5,0,0,0,1.76-.43A3.67,3.67,0,0,0,98,30.67a5.09,5.09,0,0,0,.7-1.57A7.14,7.14,0,0,0,99,27.31a5.61,5.61,0,0,0-1-3.6,3.42,3.42,0,0,0-2.81-1.3,3.46,3.46,0,0,0-1.82.45A3.83,3.83,0,0,0,92.08,24a4.94,4.94,0,0,0-.67,1.61A8.71,8.71,0,0,0,91.21,27.47Z"/><path class="cls-1" d="M105.12,20.88a9.51,9.51,0,0,1,1.7-3.19,8,8,0,0,1,2.83-2.2,9.06,9.06,0,0,1,4-.82,9,9,0,0,1,4,.82,8.09,8.09,0,0,1,2.82,2.2,9.51,9.51,0,0,1,1.7,3.19,13.14,13.14,0,0,1,0,7.59,9.23,9.23,0,0,1-1.7,3.17,8.21,8.21,0,0,1-2.82,2.2,9.09,9.09,0,0,1-4,.82,9.2,9.2,0,0,1-4-.82,8.16,8.16,0,0,1-2.83-2.2,9.23,9.23,0,0,1-1.7-3.17,12.92,12.92,0,0,1,0-7.59Zm1.68,6.88a8.28,8.28,0,0,0,1.29,2.71,6.69,6.69,0,0,0,2.25,1.93,7,7,0,0,0,3.28.72,6.87,6.87,0,0,0,3.27-.72,6.65,6.65,0,0,0,2.24-1.93,8.28,8.28,0,0,0,1.29-2.71,11.85,11.85,0,0,0,0-6.18,8.33,8.33,0,0,0-1.29-2.7A6.65,6.65,0,0,0,116.89,17a6.87,6.87,0,0,0-3.27-.72,7,7,0,0,0-3.28.72,6.69,6.69,0,0,0-2.25,1.93,8.33,8.33,0,0,0-1.29,2.7,11.58,11.58,0,0,0,0,6.18Z"/><path class="cls-1" d="M127.32,21.82V34.28h-1.7V21.82h-2.36V20.4h2.36V19.13a9.28,9.28,0,0,1,.14-1.64,3.24,3.24,0,0,1,.51-1.29,2.42,2.42,0,0,1,1-.83,4.09,4.09,0,0,1,1.69-.3c.25,0,.48,0,.7,0s.45,0,.72.08v1.45l-.64-.09a4,4,0,0,0-.6,0,2.23,2.23,0,0,0-1.07.21,1.28,1.28,0,0,0-.55.58,2.17,2.17,0,0,0-.21.85c0,.32,0,.67,0,1.05V20.4h2.74v1.42Z"/><path class="cls-1" d="M133.8,21.82V34.28h-1.69V21.82h-2.37V20.4h2.37V19.13a9.32,9.32,0,0,1,.13-1.64,3.24,3.24,0,0,1,.51-1.29,2.39,2.39,0,0,1,1-.83,4.07,4.07,0,0,1,1.68-.3c.25,0,.48,0,.7,0s.46,0,.73.08v1.45l-.65-.09a3.9,3.9,0,0,0-.59,0,2.25,2.25,0,0,0-1.08.21,1.34,1.34,0,0,0-.55.58,2.17,2.17,0,0,0-.2.85q0,.48,0,1.05V20.4h2.75v1.42Z"/><path class="cls-1" d="M145.67,23.1a2.81,2.81,0,0,0-.79-1,3.52,3.52,0,0,0-1.15-.56,5.53,5.53,0,0,0-1.37-.17,5.69,5.69,0,0,0-1.15.12,3.75,3.75,0,0,0-1.06.4,2.4,2.4,0,0,0-.78.74,2,2,0,0,0-.29,1.13,1.58,1.58,0,0,0,.28,1,2.5,2.5,0,0,0,.71.66,4.26,4.26,0,0,0,.94.44c.34.12.66.21.94.29l2.26.51a6.15,6.15,0,0,1,1.44.39,4.56,4.56,0,0,1,1.27.74,3.69,3.69,0,0,1,.74,4.64,4.14,4.14,0,0,1-1.31,1.29,5.4,5.4,0,0,1-1.78.71,9.59,9.59,0,0,1-2,.22,6.41,6.41,0,0,1-4-1.16,4.92,4.92,0,0,1-1.73-3.71h1.69a3.33,3.33,0,0,0,1.25,2.59,4.52,4.52,0,0,0,2.84.88,6.42,6.42,0,0,0,1.28-.14,4.14,4.14,0,0,0,1.22-.45,3,3,0,0,0,.93-.82,2.06,2.06,0,0,0,.37-1.23,1.92,1.92,0,0,0-.26-1,2.19,2.19,0,0,0-.69-.7,4.26,4.26,0,0,0-1-.48c-.37-.12-.74-.23-1.11-.32l-2.18-.48a13.27,13.27,0,0,1-1.54-.5,5,5,0,0,1-1.22-.7,2.89,2.89,0,0,1-.82-1,3.32,3.32,0,0,1-.3-1.49,3.39,3.39,0,0,1,.47-1.81,3.74,3.74,0,0,1,1.23-1.21,5.68,5.68,0,0,1,1.68-.67A8.33,8.33,0,0,1,142.6,20a6.76,6.76,0,0,1,2,.27,4.49,4.49,0,0,1,1.59.84,4,4,0,0,1,1.09,1.4,5,5,0,0,1,.46,2H146A3.21,3.21,0,0,0,145.67,23.1Z"/><path class="cls-1" d="M151.38,29.69a5.34,5.34,0,0,0,.83,1.77,4.63,4.63,0,0,0,1.42,1.29,4,4,0,0,0,2.07.51,4.11,4.11,0,0,0,2.91-1,5.13,5.13,0,0,0,1.45-2.58h1.7a6.81,6.81,0,0,1-2,3.66,5.91,5.91,0,0,1-4.08,1.29,6.49,6.49,0,0,1-2.83-.58,5.38,5.38,0,0,1-2-1.59,6.85,6.85,0,0,1-1.11-2.34,10.71,10.71,0,0,1-.37-2.81,10.15,10.15,0,0,1,.37-2.69,7.33,7.33,0,0,1,1.11-2.36,5.66,5.66,0,0,1,2-1.66A5.86,5.86,0,0,1,155.7,20a5.68,5.68,0,0,1,2.86.68,5.51,5.51,0,0,1,1.92,1.76,7.29,7.29,0,0,1,1.06,2.5,10.63,10.63,0,0,1,.27,2.87H151.13A7.45,7.45,0,0,0,151.38,29.69Zm8.4-5.18a5.33,5.33,0,0,0-.87-1.57,4.23,4.23,0,0,0-1.38-1.1,3.86,3.86,0,0,0-1.83-.42,3.94,3.94,0,0,0-1.85.42,4.09,4.09,0,0,0-1.37,1.1,5.64,5.64,0,0,0-.91,1.59,7.83,7.83,0,0,0-.44,1.84h9A6.12,6.12,0,0,0,159.78,24.51Z"/><path class="cls-1" d="M169.13,20.4v1.42H166.3v9.37a3.06,3.06,0,0,0,.23,1.3c.16.32.54.49,1.15.53a14.09,14.09,0,0,0,1.45-.08v1.42q-.37,0-.75,0c-.25,0-.5,0-.76,0a3.32,3.32,0,0,1-2.36-.65,3.32,3.32,0,0,1-.65-2.44v-9.5h-2.42V20.4h2.42V16.23h1.69V20.4Z"/><path class="cls-1" d="M179.09,23.1a2.84,2.84,0,0,0-.8-1,3.37,3.37,0,0,0-1.14-.56,5.53,5.53,0,0,0-1.37-.17,5.69,5.69,0,0,0-1.15.12,3.75,3.75,0,0,0-1.06.4,2.4,2.4,0,0,0-.78.74,2,2,0,0,0-.3,1.13,1.59,1.59,0,0,0,.29,1,2.37,2.37,0,0,0,.71.66,4.26,4.26,0,0,0,.94.44c.34.12.65.21.94.29l2.26.51a6.15,6.15,0,0,1,1.44.39,4.56,4.56,0,0,1,1.27.74,3.75,3.75,0,0,1,.9,1.13,3.44,3.44,0,0,1,.35,1.58,3.49,3.49,0,0,1-.51,1.93,4.14,4.14,0,0,1-1.31,1.29,5.46,5.46,0,0,1-1.79.71,9.5,9.5,0,0,1-2,.22,6.39,6.39,0,0,1-4-1.16,5,5,0,0,1-1.74-3.71H172a3.33,3.33,0,0,0,1.25,2.59,4.5,4.5,0,0,0,2.84.88,6.42,6.42,0,0,0,1.28-.14,4.25,4.25,0,0,0,1.22-.45,3,3,0,0,0,.93-.82,2.06,2.06,0,0,0,.36-1.23,1.92,1.92,0,0,0-.25-1,2.19,2.19,0,0,0-.69-.7,4.47,4.47,0,0,0-1-.48c-.37-.12-.74-.23-1.12-.32l-2.18-.48a13.74,13.74,0,0,1-1.53-.5,4.87,4.87,0,0,1-1.23-.7,3,3,0,0,1-.82-1,3.47,3.47,0,0,1-.29-1.49,3.3,3.3,0,0,1,.47-1.81,3.71,3.71,0,0,1,1.22-1.21,5.91,5.91,0,0,1,1.68-.67A8.42,8.42,0,0,1,176,20a6.76,6.76,0,0,1,1.95.27,4.49,4.49,0,0,1,1.59.84,4.1,4.1,0,0,1,1.09,1.4,5,5,0,0,1,.45,2h-1.69A3.36,3.36,0,0,0,179.09,23.1Z"/><rect class="cls-1" x="16.34" y="18.42" width="5.67" height="16.07"/><rect class="cls-1" x="21.85" y="4.1" width="16.32" height="5.71" transform="matrix(0.83, -0.56, 0.56, 0.83, 1.29, 18.09)"/><rect class="cls-1" x="5.5" y="-1.21" width="5.71" height="16.32" transform="translate(-2.09 9.95) rotate(-55.77)"/></g></g></svg>